<?xml version="1.0" standalone="no"?>
<!DOCTYPE svg PUBLIC "-//W3C//DTD SVG 20010904//EN"
 "http://www.w3.org/TR/2001/REC-SVG-20010904/DTD/svg10.dtd">
<svg version="1.0" xmlns="http://www.w3.org/2000/svg"
 width="735.000000pt" height="181.000000pt" viewBox="0 0 735.000000 181.000000"
 preserveAspectRatio="xMidYMid meet">

<g transform="translate(0.000000,181.000000) scale(0.100000,-0.100000)"
fill="#000000" stroke="none">
<path d="M454 1260 c-182 -59 -267 -271 -200 -495 47 -155 175 -237 343 -222
111 11 201 75 244 174 10 25 19 48 19 52 0 4 -20 12 -44 18 l-44 10 -17 -44
c-21 -55 -73 -106 -124 -121 -128 -39 -248 24 -286 150 -20 67 -19 190 1 259
58 193 334 219 403 36 9 -24 12 -25 53 -16 23 6 43 11 45 12 6 7 -39 88 -66
119 -69 78 -208 107 -327 68z"/>
<path d="M1860 1139 l0 -131 -30 25 c-126 106 -299 22 -329 -160 -19 -115 9
-214 79 -277 78 -71 184 -74 253 -8 l27 26 0 -32 c0 -31 2 -32 40 -32 l40 0 0
360 0 360 -40 0 -40 0 0 -131z m-64 -156 c41 -26 64 -90 64 -177 0 -116 -37
-177 -116 -192 -44 -8 -102 20 -131 64 -45 68 -40 227 9 280 48 52 118 62 174
25z"/>
<path d="M2865 1258 c7 -19 185 -697 185 -703 0 -3 22 -5 48 -5 l48 0 84 310
c47 170 87 310 90 310 3 0 44 -140 90 -310 l85 -311 45 3 45 3 96 355 96 355
-40 3 c-22 2 -43 0 -47 -5 -4 -4 -35 -125 -69 -268 -34 -143 -67 -278 -73
-300 l-11 -40 -17 85 c-10 47 -46 185 -80 308 l-63 223 -56 -3 -55 -3 -77
-275 c-42 -151 -80 -288 -84 -305 -5 -23 -23 40 -78 278 l-71 307 -48 0 c-33
0 -46 -4 -43 -12z"/>
<path d="M3860 1220 l0 -50 45 0 45 0 0 50 0 50 -45 0 -45 0 0 -50z"/>
<path d="M4360 910 l0 -360 44 0 43 0 2 181 c1 106 6 190 13 204 23 50 99 81
160 64 65 -17 72 -44 76 -261 l4 -188 39 0 40 0 -3 214 c-3 198 -5 217 -24
243 -27 38 -99 73 -149 73 -42 0 -145 -44 -145 -61 0 -6 -5 -7 -11 -3 -9 5
-10 42 -5 130 l7 124 -46 0 -45 0 0 -360z"/>
<path d="M5210 910 l0 -360 45 0 45 0 0 165 0 165 170 0 170 0 0 40 0 40 -170
0 -170 0 0 115 0 115 195 0 195 0 0 40 0 40 -240 0 -240 0 0 -360z"/>
<path d="M6860 1220 l0 -50 40 0 40 0 0 50 0 50 -40 0 -40 0 0 -50z"/>
<path d="M4133 1218 c-32 -19 -33 -22 -33 -84 l0 -64 -36 0 c-34 0 -35 -1 -32
-32 3 -29 7 -33 36 -36 l32 -3 0 -190 c0 -212 6 -239 61 -258 65 -23 119 -12
119 24 0 42 -9 52 -42 47 -53 -8 -58 10 -58 205 l0 173 45 0 c45 0 45 0 45 35
0 35 0 35 -45 35 l-45 0 0 85 c0 47 -3 85 -7 84 -5 0 -23 -10 -40 -21z"/>
<path d="M1096 1066 c-108 -40 -156 -120 -156 -258 0 -80 28 -163 68 -200 128
-120 348 -69 396 93 30 99 15 220 -33 288 -53 74 -185 110 -275 77z m163 -84
c57 -41 66 -66 66 -172 0 -84 -3 -103 -21 -126 -36 -49 -70 -67 -123 -68 -54
-1 -88 17 -125 67 -22 30 -34 138 -22 202 8 42 49 93 91 111 37 17 101 10 134
-14z"/>
<path d="M2216 1068 c-57 -16 -128 -90 -147 -153 -17 -62 -18 -167 0 -219 66
-192 365 -210 441 -26 15 36 15 35 -31 44 -34 6 -38 4 -57 -28 -75 -127 -247
-82 -278 72 l-6 32 197 0 198 0 -6 57 c-9 84 -51 161 -109 196 -53 33 -137 43
-202 25z m166 -90 c28 -20 41 -42 54 -93 l6 -25 -146 0 c-141 0 -146 1 -146
20 0 27 22 70 48 93 45 41 131 44 184 5z"/>
<path d="M5934 1069 c-51 -12 -109 -62 -129 -110 l-14 -37 40 -4 c35 -3 42 0
49 18 28 72 158 98 228 45 25 -18 42 -93 24 -104 -5 -4 -64 -15 -131 -26 -77
-12 -133 -27 -155 -40 -63 -39 -85 -134 -46 -198 29 -49 73 -68 155 -67 61 0
79 4 128 32 31 18 58 32 61 32 2 0 6 -13 10 -30 5 -28 9 -30 50 -30 l44 0 -14
38 c-9 25 -13 91 -14 207 0 194 -9 225 -72 257 -43 23 -155 31 -214 17z m204
-314 c-3 -34 -13 -67 -25 -83 -67 -92 -246 -80 -246 17 0 52 29 72 145 96 57
12 109 23 117 24 10 1 12 -11 9 -54z"/>
<path d="M3860 810 l0 -260 45 0 45 0 0 260 0 260 -45 0 -45 0 0 -260z"/>
<path d="M6340 1035 l0 -35 150 0 c83 0 150 -2 150 -5 0 -3 -72 -88 -160 -188
-145 -166 -160 -185 -160 -219 l0 -38 225 0 225 0 0 35 0 35 -174 2 -173 3
163 190 c136 159 163 195 163 223 l1 32 -205 0 -205 0 0 -35z"/>
<path d="M6860 810 l0 -260 40 0 40 0 0 260 0 260 -40 0 -40 0 0 -260z"/>
</g>
</svg>
